<svg width="90" height="133" viewBox="0 0 90 133" fill="none" xmlns="http://www.w3.org/2000/svg">
<path d="M83.5588 81.0143C74.9278 69.9261 69.0933 56.8655 63.1252 44.2139C61.655 47.0949 61.3636 51.0674 61.3816 54.2949C61.3923 58.3849 64.8122 66.1355 58.219 65.3936C42.3477 50.7982 33.1476 30.9893 19.7484 14.4341L22.012 28.4337C25.45 39.7823 30.2977 52.6543 36.1446 62.977C37.8163 65.9284 47.5631 78.0667 46.684 79.7467C44.6403 83.6233 39.0977 78.8393 36.2365 77.8063C29.7508 75.5002 21.1845 75.4927 14.6015 72.3457C20.8142 78.5552 28.1038 83.5941 34.1252 90.012C35.6464 91.6268 43.3578 99.2106 41.4888 100.899C40.7437 101.565 39.5014 101.037 38.708 100.677C35.6376 99.3171 27.8848 90.4505 24.5283 87.52C17.0788 80.9938 9.30058 74.7753 1.59762 68.552C-0.899437 65.8255 1.69391 63.5028 4.77491 63.199C7.85591 62.8952 23.2259 70.2325 28.8539 71.2608C29.7486 71.4248 35.7179 72.4699 35.8535 71.7281C23.768 52.6948 16.2405 31.9358 13.5927 9.63509C13.1757 6.19027 11.2368 -0.351355 16.4571 0.0746276C29.2607 18.1259 40.7945 37.2841 55.0402 54.3239C56.6307 54.9817 56.179 54.0341 56.3775 52.9633C56.8717 50.3166 56.5616 46.8879 57.1888 44.0666C57.9056 40.8618 61.1369 29.0405 65.4447 34.5209C70.2335 48.0317 76.788 60.7528 84.2875 72.9846C86.5161 76.6275 92.797 81.003 87.3687 85.1644C79.8554 90.9442 66.8507 94.1143 58.8408 99.8114C45.4976 107.781 33.4739 118.263 20.4222 126.669C17.2661 128.693 12.3316 132.159 8.6832 132.089C7.33768 129.768 35.966 108.06 39.0191 105.959C53.0653 96.2743 67.9862 87.897 83.5588 81.0143Z" fill="#1865BE"/>
</svg>
