<svg width="121" height="103" viewBox="0 0 121 103" fill="none" xmlns="http://www.w3.org/2000/svg">
<path d="M80.3827 0.400086C87.7481 -0.263379 102.734 -0.926853 107.599 5.7078C109.198 7.88533 109.062 10.1649 110.065 11.8831C118.179 25.986 122.449 35.7849 120.527 53.103C115.73 96.4664 20.6599 126.595 2.37392 76.3584C-12.5951 35.2406 46.8046 3.39419 80.3827 0.400086ZM85.2476 3.30916C51.3803 2.96893 -17.1028 41.1096 9.16097 82.1254C33.3325 119.841 120.527 90.3762 117.363 43.066C115.917 21.597 106.749 5.97999 83.6827 4.8572L85.2476 3.30916ZM105.694 7.22189C104.554 4.85723 101.952 3.80244 99.4171 4.09165L105.694 7.22189Z" fill="#1865BE"/>
<path d="M29.4763 50.4323C31.7216 58.2748 27.452 76.8008 36.5525 80.6795C49.2761 86.0893 67.426 70.4554 78.5847 65.3688C79.1631 70.6085 71.1853 74.7594 66.9327 77.2772C57.7982 82.721 46.8777 88.0967 35.9061 85.2387C26.2443 82.721 25.6489 66.0833 26.3463 57.9005C26.4314 56.7948 27.35 48.4929 29.4763 50.4323Z" fill="#1865BE"/>
<path d="M71.1152 30.8005C73.8878 33.7266 57.3539 62.2726 55.4488 67.172L53.0163 68.1587C52.1999 67.5293 51.5874 66.7808 51.4344 65.709C50.9751 62.5278 59.2761 50.2621 61.3003 46.5365C63.4946 42.4707 65.6549 35.2406 68.0703 32.0934C69.0739 30.7835 69.3291 30.5624 71.0982 30.8175L71.1152 30.8005Z" fill="#1865BE"/>
<path d="M50.3119 25.3057C53.952 24.5572 50.2438 33.4033 49.6995 34.9174C47.5222 41.0587 44.1711 46.7917 41.6536 52.797C40.4629 55.6379 41.0923 59.993 37.0099 59.0063C34.5774 58.1898 36.1593 54.294 36.7207 52.5758C38.4897 47.115 45.4979 32.5358 48.5258 27.4492C48.9 26.8368 49.6995 25.4078 50.3119 25.2887V25.3057Z" fill="#1865BE"/>
</svg>
