<svg width="99" height="201" viewBox="0 0 99 201" fill="none" xmlns="http://www.w3.org/2000/svg">
<path d="M14.4859 105.434C34.1878 89.3325 34.663 45.4321 26.8837 23.3744C25.4009 19.1711 18.5854 7.31111 19.5022 3.54608C19.8781 1.9214 20.5544 1.64738 21.974 0.961554C34.6705 26.0678 45.4654 54.3104 71.4193 68.5279C80.6407 73.5809 88.9641 74.2105 98.5659 77.1435C91.303 84.1918 77.5745 79.3471 69.6918 75.2321C56.0285 68.1077 45.5903 57.2913 37.2263 44.3456L37.7319 59.8863C37.0763 76.1336 32.4464 92.8674 22.0268 105.612C21.8893 106.678 30.2888 109.282 31.9528 110.103C51.8729 119.958 61.6203 136.057 75.4872 152.126C76.5393 153.33 76.8212 155.111 78.995 155.164C74.5897 139.524 72.2097 122.301 75.2349 106.189C76.9372 97.1354 82.3306 80.1502 94.509 87.5555C97.5581 95.2233 90.2654 92.6584 87.7297 94.2952C82.8964 97.4291 80.4373 115.302 80.2372 121.085C79.7235 136.189 84.1966 151.987 88.7309 166.295C92.0912 176.883 101.309 190.066 93.8414 199.87C92.0039 200.851 89.4616 199.708 88.6232 197.861C87.6955 195.819 89.6266 194.956 89.6685 193.602C90.2665 176.501 53.1433 132.02 39.0691 121.343C35.2866 118.466 22.454 110.534 17.9494 111.627C12.9118 112.861 6.68068 120.954 0.948573 116.266L1.00123 113.378C4.94399 110.446 10.8704 108.419 14.5333 105.431L14.4859 105.434Z" fill="#1865BE"/>
</svg>
