<svg width="143" height="173" viewBox="0 0 143 173" fill="none" xmlns="http://www.w3.org/2000/svg">
<path d="M92.9321 129.3C94.3925 130.091 94.5007 128.498 95.2633 127.518C103.186 117.434 108.141 108.55 117.863 99.1942C122.493 94.7164 141.076 76.0243 142.141 90.0679C137.91 102.408 132.48 116.694 130.002 129.456C128.412 137.627 129.151 166.088 125.047 170.503C118.977 177.018 94.8367 161.263 87.631 158.559C81.2208 156.164 53.7575 148.27 48.3898 149.714C46.676 150.181 46.6008 153.062 44.5548 153.567L42.2925 149.405C28.5991 148.783 14.0366 152.599 0.877449 148.429C13.7072 139.538 31.1286 143.224 45.3448 139.496C46.2201 133.916 48.2153 127.885 49.0058 122.413C50.274 113.405 48.6434 99.6518 50.5417 91.8089C51.6018 87.4532 54.7017 87.5692 56.8786 91.2813C60.3228 97.1137 60.1187 114.468 66.9669 120.663L86.4099 22.3965C87.4737 18.3082 93.6492 -9.42281 99.853 3.51024C103.22 10.5454 99.3315 46.0937 98.5554 55.9089C96.6079 80.3782 92.4618 104.67 92.9746 129.339L92.9321 129.3ZM94.2078 145.321C93.4731 145.829 91.1404 145.933 90.3236 145.513C83.6226 142.075 86.2577 103.612 86.8059 95.8081C88.2374 75.4775 93.424 52.7879 93.4067 32.841C93.4052 31.1632 94.2907 29.287 92.2009 28.2623L75.5945 116.346C68.0149 147.109 62.8735 132.43 55.3816 113.617L50.1738 140.4C62.2105 142.225 74.1482 144.02 85.7556 148.091C97.2959 152.116 107.443 159.603 119.258 162.668C121.809 140.954 123.08 119.219 129.735 98.0423C118.104 107.144 108.917 118.836 101.36 131.475C99.6097 134.408 95.9635 144.146 94.2503 145.36L94.2078 145.321Z" fill="#1865BE"/>
</svg>
