<svg width="148" height="129" viewBox="0 0 148 129" fill="none" xmlns="http://www.w3.org/2000/svg">
<path d="M104.508 31.3139C103.473 27.868 81.2538 35.2601 78.3369 36.5519C70.8632 39.909 64.998 44.4999 58.9489 49.9922C72.2263 56.1065 85.3017 65.4249 98.6004 71.0525C100.927 72.033 102.387 70.1591 103.948 74.8932L140.918 95.6385L132.943 55.5803L134.309 52.1635C138.469 48.8983 141.071 63.4777 141.653 66.3305C143.211 74.1877 145.308 85.7999 146.167 93.637C146.616 97.8073 145.032 101.65 146.991 105.937C145.481 109.567 118.009 113.923 112.887 115.175C99.9356 118.35 87.0984 122.056 74.1673 125.341L72.5456 128.608L64.49 122.67C54.7769 107.445 46.0953 90.6292 35.9802 75.7529C27.6291 63.4566 5.42338 40.6454 1.03017 28.8132C0.297346 26.8129 -0.732393 22.3441 2.60588 25.2279C9.43913 31.1494 25.4431 53.0253 32.027 61.4507C41.6227 73.7317 49.473 86.9771 57.9587 99.9851C55.4811 83.8912 51.7737 67.9658 51.6079 51.5778C42.8605 46.029 31.6102 42.9117 22.9035 37.653C20.9506 36.4722 18.2994 35.2713 18.0417 32.7101L50.4274 46.3863C49.111 42.2005 49.0091 8.84051 51.0673 8.25522C54.1162 16.5032 52.0894 26.8465 52.7733 35.7821C52.8741 37.1391 54.1825 49.0754 55.4307 48.7046C61.7883 41.3214 70.5187 35.6901 79.4528 32.0345C84.7147 29.8745 90.475 29.1502 95.6009 27.4708C96.6962 27.1156 97.7021 27.4873 98.2635 25.9588L51.8821 2.22101L47.7722 6.49837L8.68037 24.7405C-0.112199 22.5498 8.16539 17.9718 12.2159 15.778C17.5397 12.8963 46.7214 0.344906 51.1663 0.160601C56.3154 -0.0473238 61.0564 2.30786 65.6709 4.21934C86.5155 12.7913 112.672 25.4662 131.948 36.9835C134.026 38.2252 136.506 41.2194 138.255 42.071C140.118 42.9998 145.025 41.363 147.385 41.6271C148.102 42.4951 146.505 43.4164 145.845 43.8997C137.562 50.0256 125.448 52.4557 115.275 58.7794C112.396 60.5746 101.253 69.4859 99.5624 69.3183C95.5876 68.9144 96.8347 59.0209 97.0566 55.9973C97.3441 51.8966 99.2665 37.3301 100.728 34.2639C101.676 32.3053 102.855 32.2459 104.502 31.2865L104.508 31.3139ZM131.851 44.3397C127.997 42.7769 110.711 31.0568 108.159 32.4053C102.962 35.1344 102.2 45.643 101.57 51.2297C101.121 55.1491 100.763 59.1784 101.056 63.1236L131.867 44.3508L131.851 44.3397ZM142.092 101.995L101.007 78.6025C91.465 91.5588 83.9757 106.599 71.5996 117.013C70.3843 115.76 71.2583 114.61 71.8605 113.372C78.5192 100.012 88.5796 88.1468 96.4757 75.4826C84.1141 69.488 72.6745 61.398 60.2848 55.4799C59.1007 54.9157 56.2586 53.1558 55.684 54.914C55.2053 56.3555 57.145 69.5312 57.5594 72.2463C60.2081 89.7688 64.6044 107.164 72.4218 123.083C91.1106 112.916 113.516 110.781 133.877 105.255C134.928 104.965 142.312 102.86 142.092 101.995Z" fill="#1865BE"/>
</svg>
