<svg width="149" height="233" viewBox="0 0 149 233" fill="none" xmlns="http://www.w3.org/2000/svg">
<path d="M128.456 5.79691C120.765 16.3191 111.347 26.1836 102.958 36.5231L88.8778 57.5127C99.8922 55.8503 112.026 56.5445 122.784 59.6317C126.18 60.5999 137.433 64.1073 136.24 68.7291L134.129 70.976C119.92 59.6683 100.645 62.0431 83.5542 61.5499C82.6914 61.2759 81.5166 60.3624 81.3514 59.5038C80.6538 55.9051 108.208 22.1465 112.577 17.4152C115.68 14.0722 119.663 9.70622 123.61 7.71505C123.243 2.6549 117.02 5.08449 113.587 5.76039C95.7435 9.28605 78.3775 18.7304 63.3796 28.5767C51.3555 61.1114 34.8156 91.8742 24.4253 124.993C41.6445 107.931 60.6443 88.2206 82.361 76.7668C85.9774 74.8487 94.0913 69.2405 94.6971 76.3101L7.46319 222.853C37.7895 183.706 72.136 148.084 105.399 111.512C117.552 98.14 129.117 82.85 141.839 70.1539C143.711 68.2724 147.75 64.4179 148.98 68.8021L2.37818 232.992C1.90089 230.142 3.44291 228.389 4.9115 226.251C-3.38601 227.658 0.854531 221.41 3.07577 217.245C17.0457 191.049 33.9895 164.031 49.5014 138.585C60.6627 120.28 72.65 102.433 83.7562 84.0922C84.0315 82.9413 83.6828 82.4846 82.5079 82.85C81.0393 83.3067 75.6055 87.3256 73.8249 88.5495C53.0077 102.926 33.9895 121.76 18.9181 141.964C17.7066 143.097 15.9993 142.421 15.008 141.288C14.2187 140.046 14.4022 138.987 14.5675 137.635C16.1645 124.993 26.6282 102.232 31.8784 89.8282C34.9808 82.4846 56.8627 36.7972 56.3854 33.5821C56.2753 32.8331 54.9168 32.2302 55.284 31.3351C58.3313 30.3669 60.1119 25.0511 61.7457 24.156C62.5902 23.6993 63.9303 24.3934 64.8665 23.9367C83.7011 14.9673 95.6701 1.6136 119.773 0.0791204C123.665 -0.176627 132.733 -0.158348 128.42 5.74211L128.456 5.79691Z" fill="#1865BE"/>
</svg>
